<mxfile host="app.diagrams.net" modified="2023-11-26T12:29:54.941Z" agent="Mozilla/5.0 (X11; Linux x86_64) AppleWebKit/537.36 (KHTML, like Gecko) Chrome/119.0.0.0 Safari/537.36" etag="ecrAEXjuPCZb_ZXwrevb" version="22.1.4" type="github">
  <diagram name="Page-1" id="Gi1QBVkOmJKR40ZFFQBc">
    <mxGraphModel dx="880" dy="486" grid="1" gridSize="10" guides="1" tooltips="1" connect="1" arrows="1" fold="1" page="1" pageScale="1" pageWidth="850" pageHeight="1100" math="0" shadow="0">
      <root>
        <mxCell id="0" />
        <mxCell id="1" parent="0" />
        <mxCell id="bWBlooidnNN79LYnT6fm-2" value="Hotel" style="swimlane;fontStyle=0;childLayout=stackLayout;horizontal=1;startSize=30;horizontalStack=0;resizeParent=1;resizeParentMax=0;resizeLast=0;collapsible=1;marginBottom=0;whiteSpace=wrap;html=1;fillColor=#e1d5e7;strokeColor=#9673a6;" parent="1" vertex="1">
          <mxGeometry y="45" width="80" height="210" as="geometry">
            <mxRectangle x="134" y="46" width="70" height="30" as="alternateBounds" />
          </mxGeometry>
        </mxCell>
        <mxCell id="bWBlooidnNN79LYnT6fm-3" value="name" style="text;strokeColor=none;fillColor=none;align=left;verticalAlign=middle;spacingLeft=4;spacingRight=4;overflow=hidden;points=[[0,0.5],[1,0.5]];portConstraint=eastwest;rotatable=0;whiteSpace=wrap;html=1;" parent="bWBlooidnNN79LYnT6fm-2" vertex="1">
          <mxGeometry y="30" width="80" height="30" as="geometry" />
        </mxCell>
        <mxCell id="bWBlooidnNN79LYnT6fm-4" value="country" style="text;strokeColor=none;fillColor=none;align=left;verticalAlign=middle;spacingLeft=4;spacingRight=4;overflow=hidden;points=[[0,0.5],[1,0.5]];portConstraint=eastwest;rotatable=0;whiteSpace=wrap;html=1;" parent="bWBlooidnNN79LYnT6fm-2" vertex="1">
          <mxGeometry y="60" width="80" height="30" as="geometry" />
        </mxCell>
        <mxCell id="bWBlooidnNN79LYnT6fm-6" value="city" style="text;strokeColor=none;fillColor=none;align=left;verticalAlign=middle;spacingLeft=4;spacingRight=4;overflow=hidden;points=[[0,0.5],[1,0.5]];portConstraint=eastwest;rotatable=0;whiteSpace=wrap;html=1;" parent="bWBlooidnNN79LYnT6fm-2" vertex="1">
          <mxGeometry y="90" width="80" height="30" as="geometry" />
        </mxCell>
        <mxCell id="bWBlooidnNN79LYnT6fm-5" value="nationalFlag" style="text;strokeColor=none;fillColor=none;align=left;verticalAlign=middle;spacingLeft=4;spacingRight=4;overflow=hidden;points=[[0,0.5],[1,0.5]];portConstraint=eastwest;rotatable=0;whiteSpace=wrap;html=1;" parent="bWBlooidnNN79LYnT6fm-2" vertex="1">
          <mxGeometry y="120" width="80" height="30" as="geometry" />
        </mxCell>
        <mxCell id="bWBlooidnNN79LYnT6fm-8" value="coords" style="text;strokeColor=none;fillColor=none;align=left;verticalAlign=middle;spacingLeft=4;spacingRight=4;overflow=hidden;points=[[0,0.5],[1,0.5]];portConstraint=eastwest;rotatable=0;whiteSpace=wrap;html=1;" parent="bWBlooidnNN79LYnT6fm-2" vertex="1">
          <mxGeometry y="150" width="80" height="30" as="geometry" />
        </mxCell>
        <mxCell id="bWBlooidnNN79LYnT6fm-7" value="address" style="text;strokeColor=none;fillColor=none;align=left;verticalAlign=middle;spacingLeft=4;spacingRight=4;overflow=hidden;points=[[0,0.5],[1,0.5]];portConstraint=eastwest;rotatable=0;whiteSpace=wrap;html=1;" parent="bWBlooidnNN79LYnT6fm-2" vertex="1">
          <mxGeometry y="180" width="80" height="30" as="geometry" />
        </mxCell>
        <mxCell id="bWBlooidnNN79LYnT6fm-9" value="guest" style="swimlane;fontStyle=0;childLayout=stackLayout;horizontal=1;startSize=30;horizontalStack=0;resizeParent=1;resizeParentMax=0;resizeLast=0;collapsible=1;marginBottom=0;whiteSpace=wrap;html=1;fillColor=#1ba1e2;fontColor=#ffffff;strokeColor=#006EAF;" parent="1" vertex="1">
          <mxGeometry x="320" y="40" width="80" height="240" as="geometry" />
        </mxCell>
        <mxCell id="bWBlooidnNN79LYnT6fm-10" value="userName" style="text;strokeColor=none;fillColor=none;align=left;verticalAlign=middle;spacingLeft=4;spacingRight=4;overflow=hidden;points=[[0,0.5],[1,0.5]];portConstraint=eastwest;rotatable=0;whiteSpace=wrap;html=1;" parent="bWBlooidnNN79LYnT6fm-9" vertex="1">
          <mxGeometry y="30" width="80" height="30" as="geometry" />
        </mxCell>
        <mxCell id="bWBlooidnNN79LYnT6fm-11" value="fullName" style="text;strokeColor=none;fillColor=none;align=left;verticalAlign=middle;spacingLeft=4;spacingRight=4;overflow=hidden;points=[[0,0.5],[1,0.5]];portConstraint=eastwest;rotatable=0;whiteSpace=wrap;html=1;" parent="bWBlooidnNN79LYnT6fm-9" vertex="1">
          <mxGeometry y="60" width="80" height="30" as="geometry" />
        </mxCell>
        <mxCell id="bWBlooidnNN79LYnT6fm-13" value="email" style="text;strokeColor=none;fillColor=none;align=left;verticalAlign=middle;spacingLeft=4;spacingRight=4;overflow=hidden;points=[[0,0.5],[1,0.5]];portConstraint=eastwest;rotatable=0;whiteSpace=wrap;html=1;" parent="bWBlooidnNN79LYnT6fm-9" vertex="1">
          <mxGeometry y="90" width="80" height="30" as="geometry" />
        </mxCell>
        <mxCell id="bWBlooidnNN79LYnT6fm-12" value="createdAt" style="text;strokeColor=none;fillColor=none;align=left;verticalAlign=middle;spacingLeft=4;spacingRight=4;overflow=hidden;points=[[0,0.5],[1,0.5]];portConstraint=eastwest;rotatable=0;whiteSpace=wrap;html=1;" parent="bWBlooidnNN79LYnT6fm-9" vertex="1">
          <mxGeometry y="120" width="80" height="30" as="geometry" />
        </mxCell>
        <mxCell id="bWBlooidnNN79LYnT6fm-16" value="nationality&amp;nbsp;" style="text;strokeColor=none;fillColor=none;align=left;verticalAlign=middle;spacingLeft=4;spacingRight=4;overflow=hidden;points=[[0,0.5],[1,0.5]];portConstraint=eastwest;rotatable=0;whiteSpace=wrap;html=1;" parent="bWBlooidnNN79LYnT6fm-9" vertex="1">
          <mxGeometry y="150" width="80" height="30" as="geometry" />
        </mxCell>
        <mxCell id="bWBlooidnNN79LYnT6fm-15" value="countryFlag" style="text;strokeColor=none;fillColor=none;align=left;verticalAlign=middle;spacingLeft=4;spacingRight=4;overflow=hidden;points=[[0,0.5],[1,0.5]];portConstraint=eastwest;rotatable=0;whiteSpace=wrap;html=1;" parent="bWBlooidnNN79LYnT6fm-9" vertex="1">
          <mxGeometry y="180" width="80" height="30" as="geometry" />
        </mxCell>
        <mxCell id="bWBlooidnNN79LYnT6fm-14" value="nationalID" style="text;strokeColor=none;fillColor=none;align=left;verticalAlign=middle;spacingLeft=4;spacingRight=4;overflow=hidden;points=[[0,0.5],[1,0.5]];portConstraint=eastwest;rotatable=0;whiteSpace=wrap;html=1;" parent="bWBlooidnNN79LYnT6fm-9" vertex="1">
          <mxGeometry y="210" width="80" height="30" as="geometry" />
        </mxCell>
        <mxCell id="bWBlooidnNN79LYnT6fm-20" value="Cabin" style="swimlane;fontStyle=0;childLayout=stackLayout;horizontal=1;startSize=25;horizontalStack=0;resizeParent=1;resizeParentMax=0;resizeLast=0;collapsible=1;marginBottom=0;whiteSpace=wrap;html=1;fillColor=#d5e8d4;strokeColor=#82b366;" parent="1" vertex="1">
          <mxGeometry x="420" y="40" width="80" height="475" as="geometry" />
        </mxCell>
        <mxCell id="bWBlooidnNN79LYnT6fm-21" value="name" style="text;strokeColor=none;fillColor=none;align=left;verticalAlign=middle;spacingLeft=4;spacingRight=4;overflow=hidden;points=[[0,0.5],[1,0.5]];portConstraint=eastwest;rotatable=0;whiteSpace=wrap;html=1;" parent="bWBlooidnNN79LYnT6fm-20" vertex="1">
          <mxGeometry y="25" width="80" height="30" as="geometry" />
        </mxCell>
        <mxCell id="EpTEwI7m9iSrlXc3tOxz-1" value="type" style="text;strokeColor=none;fillColor=none;align=left;verticalAlign=middle;spacingLeft=4;spacingRight=4;overflow=hidden;points=[[0,0.5],[1,0.5]];portConstraint=eastwest;rotatable=0;whiteSpace=wrap;html=1;" vertex="1" parent="bWBlooidnNN79LYnT6fm-20">
          <mxGeometry y="55" width="80" height="30" as="geometry" />
        </mxCell>
        <mxCell id="bWBlooidnNN79LYnT6fm-22" value="images" style="text;strokeColor=none;fillColor=none;align=left;verticalAlign=middle;spacingLeft=4;spacingRight=4;overflow=hidden;points=[[0,0.5],[1,0.5]];portConstraint=eastwest;rotatable=0;whiteSpace=wrap;html=1;" parent="bWBlooidnNN79LYnT6fm-20" vertex="1">
          <mxGeometry y="85" width="80" height="30" as="geometry" />
        </mxCell>
        <mxCell id="EpTEwI7m9iSrlXc3tOxz-4" value="floor" style="text;strokeColor=none;fillColor=none;align=left;verticalAlign=middle;spacingLeft=4;spacingRight=4;overflow=hidden;points=[[0,0.5],[1,0.5]];portConstraint=eastwest;rotatable=0;whiteSpace=wrap;html=1;" vertex="1" parent="bWBlooidnNN79LYnT6fm-20">
          <mxGeometry y="115" width="80" height="30" as="geometry" />
        </mxCell>
        <mxCell id="68LMOMekA5ZK0Uav1YOE-65" value="reserved" style="text;strokeColor=none;fillColor=none;align=left;verticalAlign=middle;spacingLeft=4;spacingRight=4;overflow=hidden;points=[[0,0.5],[1,0.5]];portConstraint=eastwest;rotatable=0;whiteSpace=wrap;html=1;" parent="bWBlooidnNN79LYnT6fm-20" vertex="1">
          <mxGeometry y="145" width="80" height="30" as="geometry" />
        </mxCell>
        <mxCell id="bWBlooidnNN79LYnT6fm-23" value="maxCapacity" style="text;strokeColor=none;fillColor=none;align=left;verticalAlign=middle;spacingLeft=4;spacingRight=4;overflow=hidden;points=[[0,0.5],[1,0.5]];portConstraint=eastwest;rotatable=0;whiteSpace=wrap;html=1;" parent="bWBlooidnNN79LYnT6fm-20" vertex="1">
          <mxGeometry y="175" width="80" height="30" as="geometry" />
        </mxCell>
        <mxCell id="EpTEwI7m9iSrlXc3tOxz-7" value="Bed Configuration" style="text;strokeColor=none;fillColor=none;align=left;verticalAlign=middle;spacingLeft=4;spacingRight=4;overflow=hidden;points=[[0,0.5],[1,0.5]];portConstraint=eastwest;rotatable=0;whiteSpace=wrap;html=1;" vertex="1" parent="bWBlooidnNN79LYnT6fm-20">
          <mxGeometry y="205" width="80" height="30" as="geometry" />
        </mxCell>
        <mxCell id="EpTEwI7m9iSrlXc3tOxz-6" value="View Type" style="text;strokeColor=none;fillColor=none;align=left;verticalAlign=middle;spacingLeft=4;spacingRight=4;overflow=hidden;points=[[0,0.5],[1,0.5]];portConstraint=eastwest;rotatable=0;whiteSpace=wrap;html=1;" vertex="1" parent="bWBlooidnNN79LYnT6fm-20">
          <mxGeometry y="235" width="80" height="30" as="geometry" />
        </mxCell>
        <mxCell id="bWBlooidnNN79LYnT6fm-24" value="createdAt" style="text;strokeColor=none;fillColor=none;align=left;verticalAlign=middle;spacingLeft=4;spacingRight=4;overflow=hidden;points=[[0,0.5],[1,0.5]];portConstraint=eastwest;rotatable=0;whiteSpace=wrap;html=1;" parent="bWBlooidnNN79LYnT6fm-20" vertex="1">
          <mxGeometry y="265" width="80" height="30" as="geometry" />
        </mxCell>
        <mxCell id="EpTEwI7m9iSrlXc3tOxz-5" value="Amenities" style="text;strokeColor=none;fillColor=none;align=left;verticalAlign=middle;spacingLeft=4;spacingRight=4;overflow=hidden;points=[[0,0.5],[1,0.5]];portConstraint=eastwest;rotatable=0;whiteSpace=wrap;html=1;" vertex="1" parent="bWBlooidnNN79LYnT6fm-20">
          <mxGeometry y="295" width="80" height="30" as="geometry" />
        </mxCell>
        <mxCell id="bWBlooidnNN79LYnT6fm-25" value="reguarPrice" style="text;strokeColor=none;fillColor=none;align=left;verticalAlign=middle;spacingLeft=4;spacingRight=4;overflow=hidden;points=[[0,0.5],[1,0.5]];portConstraint=eastwest;rotatable=0;whiteSpace=wrap;html=1;" parent="bWBlooidnNN79LYnT6fm-20" vertex="1">
          <mxGeometry y="325" width="80" height="30" as="geometry" />
        </mxCell>
        <mxCell id="bWBlooidnNN79LYnT6fm-26" value="discount" style="text;strokeColor=none;fillColor=none;align=left;verticalAlign=middle;spacingLeft=4;spacingRight=4;overflow=hidden;points=[[0,0.5],[1,0.5]];portConstraint=eastwest;rotatable=0;whiteSpace=wrap;html=1;" parent="bWBlooidnNN79LYnT6fm-20" vertex="1">
          <mxGeometry y="355" width="80" height="30" as="geometry" />
        </mxCell>
        <mxCell id="bWBlooidnNN79LYnT6fm-27" value="description" style="text;strokeColor=none;fillColor=none;align=left;verticalAlign=middle;spacingLeft=4;spacingRight=4;overflow=hidden;points=[[0,0.5],[1,0.5]];portConstraint=eastwest;rotatable=0;whiteSpace=wrap;html=1;" parent="bWBlooidnNN79LYnT6fm-20" vertex="1">
          <mxGeometry y="385" width="80" height="30" as="geometry" />
        </mxCell>
        <mxCell id="bWBlooidnNN79LYnT6fm-68" value="**hotelId" style="text;strokeColor=none;fillColor=none;align=left;verticalAlign=middle;spacingLeft=4;spacingRight=4;overflow=hidden;points=[[0,0.5],[1,0.5]];portConstraint=eastwest;rotatable=0;whiteSpace=wrap;html=1;" parent="bWBlooidnNN79LYnT6fm-20" vertex="1">
          <mxGeometry y="415" width="80" height="30" as="geometry" />
        </mxCell>
        <mxCell id="EpTEwI7m9iSrlXc3tOxz-2" value="Availability" style="text;strokeColor=none;fillColor=none;align=left;verticalAlign=middle;spacingLeft=4;spacingRight=4;overflow=hidden;points=[[0,0.5],[1,0.5]];portConstraint=eastwest;rotatable=0;whiteSpace=wrap;html=1;" vertex="1" parent="bWBlooidnNN79LYnT6fm-20">
          <mxGeometry y="445" width="80" height="30" as="geometry" />
        </mxCell>
        <mxCell id="bWBlooidnNN79LYnT6fm-28" value="Booking" style="swimlane;fontStyle=0;childLayout=stackLayout;horizontal=1;startSize=30;horizontalStack=0;resizeParent=1;resizeParentMax=0;resizeLast=0;collapsible=1;marginBottom=0;whiteSpace=wrap;html=1;fillColor=#dae8fc;strokeColor=#6c8ebf;" parent="1" vertex="1">
          <mxGeometry x="510" y="40" width="100" height="480" as="geometry" />
        </mxCell>
        <mxCell id="bWBlooidnNN79LYnT6fm-29" value="createdAt" style="text;strokeColor=none;fillColor=none;align=left;verticalAlign=middle;spacingLeft=4;spacingRight=4;overflow=hidden;points=[[0,0.5],[1,0.5]];portConstraint=eastwest;rotatable=0;whiteSpace=wrap;html=1;" parent="bWBlooidnNN79LYnT6fm-28" vertex="1">
          <mxGeometry y="30" width="100" height="30" as="geometry" />
        </mxCell>
        <mxCell id="bWBlooidnNN79LYnT6fm-30" value="startDate" style="text;strokeColor=none;fillColor=none;align=left;verticalAlign=middle;spacingLeft=4;spacingRight=4;overflow=hidden;points=[[0,0.5],[1,0.5]];portConstraint=eastwest;rotatable=0;whiteSpace=wrap;html=1;" parent="bWBlooidnNN79LYnT6fm-28" vertex="1">
          <mxGeometry y="60" width="100" height="30" as="geometry" />
        </mxCell>
        <mxCell id="bWBlooidnNN79LYnT6fm-31" value="endDate" style="text;strokeColor=none;fillColor=none;align=left;verticalAlign=middle;spacingLeft=4;spacingRight=4;overflow=hidden;points=[[0,0.5],[1,0.5]];portConstraint=eastwest;rotatable=0;whiteSpace=wrap;html=1;" parent="bWBlooidnNN79LYnT6fm-28" vertex="1">
          <mxGeometry y="90" width="100" height="30" as="geometry" />
        </mxCell>
        <mxCell id="bWBlooidnNN79LYnT6fm-32" value="numNights" style="text;strokeColor=none;fillColor=none;align=left;verticalAlign=middle;spacingLeft=4;spacingRight=4;overflow=hidden;points=[[0,0.5],[1,0.5]];portConstraint=eastwest;rotatable=0;whiteSpace=wrap;html=1;" parent="bWBlooidnNN79LYnT6fm-28" vertex="1">
          <mxGeometry y="120" width="100" height="30" as="geometry" />
        </mxCell>
        <mxCell id="bWBlooidnNN79LYnT6fm-33" value="numGuests" style="text;strokeColor=none;fillColor=none;align=left;verticalAlign=middle;spacingLeft=4;spacingRight=4;overflow=hidden;points=[[0,0.5],[1,0.5]];portConstraint=eastwest;rotatable=0;whiteSpace=wrap;html=1;" parent="bWBlooidnNN79LYnT6fm-28" vertex="1">
          <mxGeometry y="150" width="100" height="30" as="geometry" />
        </mxCell>
        <mxCell id="bWBlooidnNN79LYnT6fm-34" value="cabinPrice" style="text;strokeColor=none;fillColor=none;align=left;verticalAlign=middle;spacingLeft=4;spacingRight=4;overflow=hidden;points=[[0,0.5],[1,0.5]];portConstraint=eastwest;rotatable=0;whiteSpace=wrap;html=1;" parent="bWBlooidnNN79LYnT6fm-28" vertex="1">
          <mxGeometry y="180" width="100" height="30" as="geometry" />
        </mxCell>
        <mxCell id="bWBlooidnNN79LYnT6fm-35" value="extraPrice" style="text;strokeColor=none;fillColor=none;align=left;verticalAlign=middle;spacingLeft=4;spacingRight=4;overflow=hidden;points=[[0,0.5],[1,0.5]];portConstraint=eastwest;rotatable=0;whiteSpace=wrap;html=1;" parent="bWBlooidnNN79LYnT6fm-28" vertex="1">
          <mxGeometry y="210" width="100" height="30" as="geometry" />
        </mxCell>
        <mxCell id="bWBlooidnNN79LYnT6fm-36" value="TotalPrice" style="text;strokeColor=none;fillColor=none;align=left;verticalAlign=middle;spacingLeft=4;spacingRight=4;overflow=hidden;points=[[0,0.5],[1,0.5]];portConstraint=eastwest;rotatable=0;whiteSpace=wrap;html=1;" parent="bWBlooidnNN79LYnT6fm-28" vertex="1">
          <mxGeometry y="240" width="100" height="30" as="geometry" />
        </mxCell>
        <mxCell id="bWBlooidnNN79LYnT6fm-37" value="status" style="text;strokeColor=none;fillColor=none;align=left;verticalAlign=middle;spacingLeft=4;spacingRight=4;overflow=hidden;points=[[0,0.5],[1,0.5]];portConstraint=eastwest;rotatable=0;whiteSpace=wrap;html=1;" parent="bWBlooidnNN79LYnT6fm-28" vertex="1">
          <mxGeometry y="270" width="100" height="30" as="geometry" />
        </mxCell>
        <mxCell id="bWBlooidnNN79LYnT6fm-38" value="hasBreakFast" style="text;strokeColor=none;fillColor=none;align=left;verticalAlign=middle;spacingLeft=4;spacingRight=4;overflow=hidden;points=[[0,0.5],[1,0.5]];portConstraint=eastwest;rotatable=0;whiteSpace=wrap;html=1;" parent="bWBlooidnNN79LYnT6fm-28" vertex="1">
          <mxGeometry y="300" width="100" height="30" as="geometry" />
        </mxCell>
        <mxCell id="bWBlooidnNN79LYnT6fm-39" value="isPaid" style="text;strokeColor=none;fillColor=none;align=left;verticalAlign=middle;spacingLeft=4;spacingRight=4;overflow=hidden;points=[[0,0.5],[1,0.5]];portConstraint=eastwest;rotatable=0;whiteSpace=wrap;html=1;" parent="bWBlooidnNN79LYnT6fm-28" vertex="1">
          <mxGeometry y="330" width="100" height="30" as="geometry" />
        </mxCell>
        <mxCell id="bWBlooidnNN79LYnT6fm-43" value="observation" style="text;strokeColor=none;fillColor=none;align=left;verticalAlign=middle;spacingLeft=4;spacingRight=4;overflow=hidden;points=[[0,0.5],[1,0.5]];portConstraint=eastwest;rotatable=0;whiteSpace=wrap;html=1;" parent="bWBlooidnNN79LYnT6fm-28" vertex="1">
          <mxGeometry y="360" width="100" height="30" as="geometry" />
        </mxCell>
        <mxCell id="bWBlooidnNN79LYnT6fm-65" value="**cabinID" style="text;strokeColor=none;fillColor=none;align=left;verticalAlign=middle;spacingLeft=4;spacingRight=4;overflow=hidden;points=[[0,0.5],[1,0.5]];portConstraint=eastwest;rotatable=0;whiteSpace=wrap;html=1;" parent="bWBlooidnNN79LYnT6fm-28" vertex="1">
          <mxGeometry y="390" width="100" height="30" as="geometry" />
        </mxCell>
        <mxCell id="bWBlooidnNN79LYnT6fm-66" value="**hotelId" style="text;strokeColor=none;fillColor=none;align=left;verticalAlign=middle;spacingLeft=4;spacingRight=4;overflow=hidden;points=[[0,0.5],[1,0.5]];portConstraint=eastwest;rotatable=0;whiteSpace=wrap;html=1;" parent="bWBlooidnNN79LYnT6fm-28" vertex="1">
          <mxGeometry y="420" width="100" height="30" as="geometry" />
        </mxCell>
        <mxCell id="bWBlooidnNN79LYnT6fm-67" value="**guestId" style="text;strokeColor=none;fillColor=none;align=left;verticalAlign=middle;spacingLeft=4;spacingRight=4;overflow=hidden;points=[[0,0.5],[1,0.5]];portConstraint=eastwest;rotatable=0;whiteSpace=wrap;html=1;" parent="bWBlooidnNN79LYnT6fm-28" vertex="1">
          <mxGeometry y="450" width="100" height="30" as="geometry" />
        </mxCell>
        <mxCell id="bWBlooidnNN79LYnT6fm-45" value="Setting" style="swimlane;fontStyle=0;childLayout=stackLayout;horizontal=1;startSize=30;horizontalStack=0;resizeParent=1;resizeParentMax=0;resizeLast=0;collapsible=1;marginBottom=0;whiteSpace=wrap;html=1;fillColor=#fff2cc;strokeColor=#d6b656;" parent="1" vertex="1">
          <mxGeometry x="620" y="40" width="130" height="210" as="geometry" />
        </mxCell>
        <mxCell id="bWBlooidnNN79LYnT6fm-46" value="createdAt" style="text;strokeColor=none;fillColor=none;align=left;verticalAlign=middle;spacingLeft=4;spacingRight=4;overflow=hidden;points=[[0,0.5],[1,0.5]];portConstraint=eastwest;rotatable=0;whiteSpace=wrap;html=1;" parent="bWBlooidnNN79LYnT6fm-45" vertex="1">
          <mxGeometry y="30" width="130" height="30" as="geometry" />
        </mxCell>
        <mxCell id="bWBlooidnNN79LYnT6fm-47" value="minBookingLength" style="text;strokeColor=none;fillColor=none;align=left;verticalAlign=middle;spacingLeft=4;spacingRight=4;overflow=hidden;points=[[0,0.5],[1,0.5]];portConstraint=eastwest;rotatable=0;whiteSpace=wrap;html=1;" parent="bWBlooidnNN79LYnT6fm-45" vertex="1">
          <mxGeometry y="60" width="130" height="30" as="geometry" />
        </mxCell>
        <mxCell id="bWBlooidnNN79LYnT6fm-48" value="maxBookingLength" style="text;strokeColor=none;fillColor=none;align=left;verticalAlign=middle;spacingLeft=4;spacingRight=4;overflow=hidden;points=[[0,0.5],[1,0.5]];portConstraint=eastwest;rotatable=0;whiteSpace=wrap;html=1;" parent="bWBlooidnNN79LYnT6fm-45" vertex="1">
          <mxGeometry y="90" width="130" height="30" as="geometry" />
        </mxCell>
        <mxCell id="bWBlooidnNN79LYnT6fm-49" value="maxGuestPerBooking" style="text;strokeColor=none;fillColor=none;align=left;verticalAlign=middle;spacingLeft=4;spacingRight=4;overflow=hidden;points=[[0,0.5],[1,0.5]];portConstraint=eastwest;rotatable=0;whiteSpace=wrap;html=1;" parent="bWBlooidnNN79LYnT6fm-45" vertex="1">
          <mxGeometry y="120" width="130" height="30" as="geometry" />
        </mxCell>
        <mxCell id="bWBlooidnNN79LYnT6fm-50" value="breakFastPrice" style="text;strokeColor=none;fillColor=none;align=left;verticalAlign=middle;spacingLeft=4;spacingRight=4;overflow=hidden;points=[[0,0.5],[1,0.5]];portConstraint=eastwest;rotatable=0;whiteSpace=wrap;html=1;" parent="bWBlooidnNN79LYnT6fm-45" vertex="1">
          <mxGeometry y="150" width="130" height="30" as="geometry" />
        </mxCell>
        <mxCell id="bWBlooidnNN79LYnT6fm-71" value="**hotelId" style="text;strokeColor=none;fillColor=none;align=left;verticalAlign=middle;spacingLeft=4;spacingRight=4;overflow=hidden;points=[[0,0.5],[1,0.5]];portConstraint=eastwest;rotatable=0;whiteSpace=wrap;html=1;" parent="bWBlooidnNN79LYnT6fm-45" vertex="1">
          <mxGeometry y="180" width="130" height="30" as="geometry" />
        </mxCell>
        <mxCell id="bWBlooidnNN79LYnT6fm-53" value="Review" style="swimlane;fontStyle=0;childLayout=stackLayout;horizontal=1;startSize=30;horizontalStack=0;resizeParent=1;resizeParentMax=0;resizeLast=0;collapsible=1;marginBottom=0;whiteSpace=wrap;html=1;fillColor=#008a00;strokeColor=#005700;fontColor=#ffffff;" parent="1" vertex="1">
          <mxGeometry x="760" y="40" width="70" height="180" as="geometry" />
        </mxCell>
        <mxCell id="bWBlooidnNN79LYnT6fm-54" value="createdAt" style="text;strokeColor=none;fillColor=none;align=left;verticalAlign=middle;spacingLeft=4;spacingRight=4;overflow=hidden;points=[[0,0.5],[1,0.5]];portConstraint=eastwest;rotatable=0;whiteSpace=wrap;html=1;" parent="bWBlooidnNN79LYnT6fm-53" vertex="1">
          <mxGeometry y="30" width="70" height="30" as="geometry" />
        </mxCell>
        <mxCell id="bWBlooidnNN79LYnT6fm-55" value="rating" style="text;strokeColor=none;fillColor=none;align=left;verticalAlign=middle;spacingLeft=4;spacingRight=4;overflow=hidden;points=[[0,0.5],[1,0.5]];portConstraint=eastwest;rotatable=0;whiteSpace=wrap;html=1;" parent="bWBlooidnNN79LYnT6fm-53" vertex="1">
          <mxGeometry y="60" width="70" height="30" as="geometry" />
        </mxCell>
        <mxCell id="bWBlooidnNN79LYnT6fm-56" value="review" style="text;strokeColor=none;fillColor=none;align=left;verticalAlign=middle;spacingLeft=4;spacingRight=4;overflow=hidden;points=[[0,0.5],[1,0.5]];portConstraint=eastwest;rotatable=0;whiteSpace=wrap;html=1;" parent="bWBlooidnNN79LYnT6fm-53" vertex="1">
          <mxGeometry y="90" width="70" height="30" as="geometry" />
        </mxCell>
        <mxCell id="bWBlooidnNN79LYnT6fm-57" value="**hotelId" style="text;strokeColor=none;fillColor=none;align=left;verticalAlign=middle;spacingLeft=4;spacingRight=4;overflow=hidden;points=[[0,0.5],[1,0.5]];portConstraint=eastwest;rotatable=0;whiteSpace=wrap;html=1;" parent="bWBlooidnNN79LYnT6fm-53" vertex="1">
          <mxGeometry y="120" width="70" height="30" as="geometry" />
        </mxCell>
        <mxCell id="bWBlooidnNN79LYnT6fm-58" value="**guestId" style="text;strokeColor=none;fillColor=none;align=left;verticalAlign=middle;spacingLeft=4;spacingRight=4;overflow=hidden;points=[[0,0.5],[1,0.5]];portConstraint=eastwest;rotatable=0;whiteSpace=wrap;html=1;" parent="bWBlooidnNN79LYnT6fm-53" vertex="1">
          <mxGeometry y="150" width="70" height="30" as="geometry" />
        </mxCell>
        <mxCell id="bWBlooidnNN79LYnT6fm-113" style="edgeStyle=orthogonalEdgeStyle;rounded=0;orthogonalLoop=1;jettySize=auto;html=1;entryX=0.5;entryY=0;entryDx=0;entryDy=0;" parent="1" target="bWBlooidnNN79LYnT6fm-75" edge="1">
          <mxGeometry relative="1" as="geometry">
            <mxPoint x="370" y="700" as="sourcePoint" />
            <Array as="points">
              <mxPoint x="370" y="850" />
              <mxPoint x="370" y="850" />
            </Array>
          </mxGeometry>
        </mxCell>
        <mxCell id="bWBlooidnNN79LYnT6fm-119" value="1:*" style="edgeLabel;html=1;align=center;verticalAlign=middle;resizable=0;points=[];" parent="bWBlooidnNN79LYnT6fm-113" vertex="1" connectable="0">
          <mxGeometry x="-0.775" y="-1" relative="1" as="geometry">
            <mxPoint as="offset" />
          </mxGeometry>
        </mxCell>
        <mxCell id="bWBlooidnNN79LYnT6fm-114" style="edgeStyle=orthogonalEdgeStyle;rounded=0;orthogonalLoop=1;jettySize=auto;html=1;entryX=0;entryY=0;entryDx=0;entryDy=0;exitX=1;exitY=0.75;exitDx=0;exitDy=0;" parent="1" source="bWBlooidnNN79LYnT6fm-73" edge="1">
          <mxGeometry relative="1" as="geometry">
            <Array as="points">
              <mxPoint x="430" y="880" />
              <mxPoint x="725" y="880" />
            </Array>
            <mxPoint x="495" y="750" as="sourcePoint" />
            <mxPoint x="725" y="980" as="targetPoint" />
          </mxGeometry>
        </mxCell>
        <mxCell id="68LMOMekA5ZK0Uav1YOE-67" value="1:*" style="edgeLabel;html=1;align=center;verticalAlign=middle;resizable=0;points=[];" parent="bWBlooidnNN79LYnT6fm-114" vertex="1" connectable="0">
          <mxGeometry x="-0.0915" y="-3" relative="1" as="geometry">
            <mxPoint y="-3" as="offset" />
          </mxGeometry>
        </mxCell>
        <mxCell id="68LMOMekA5ZK0Uav1YOE-42" style="edgeStyle=orthogonalEdgeStyle;rounded=0;orthogonalLoop=1;jettySize=auto;html=1;entryX=0;entryY=0.5;entryDx=0;entryDy=0;" parent="1" source="bWBlooidnNN79LYnT6fm-73" target="bWBlooidnNN79LYnT6fm-142" edge="1">
          <mxGeometry relative="1" as="geometry">
            <mxPoint x="530" y="670" as="targetPoint" />
          </mxGeometry>
        </mxCell>
        <mxCell id="68LMOMekA5ZK0Uav1YOE-43" value="1:*" style="edgeLabel;html=1;align=center;verticalAlign=middle;resizable=0;points=[];" parent="68LMOMekA5ZK0Uav1YOE-42" vertex="1" connectable="0">
          <mxGeometry x="-0.1818" y="-4" relative="1" as="geometry">
            <mxPoint y="-4" as="offset" />
          </mxGeometry>
        </mxCell>
        <mxCell id="68LMOMekA5ZK0Uav1YOE-49" style="edgeStyle=orthogonalEdgeStyle;rounded=0;orthogonalLoop=1;jettySize=auto;html=1;entryX=0;entryY=0.75;entryDx=0;entryDy=0;" parent="1" source="bWBlooidnNN79LYnT6fm-73" target="bWBlooidnNN79LYnT6fm-78" edge="1">
          <mxGeometry relative="1" as="geometry">
            <Array as="points">
              <mxPoint x="430" y="776" />
            </Array>
          </mxGeometry>
        </mxCell>
        <mxCell id="68LMOMekA5ZK0Uav1YOE-59" value="1:*" style="edgeLabel;html=1;align=center;verticalAlign=middle;resizable=0;points=[];" parent="68LMOMekA5ZK0Uav1YOE-49" vertex="1" connectable="0">
          <mxGeometry x="0.452" y="-3" relative="1" as="geometry">
            <mxPoint as="offset" />
          </mxGeometry>
        </mxCell>
        <mxCell id="68LMOMekA5ZK0Uav1YOE-60" style="edgeStyle=orthogonalEdgeStyle;rounded=0;orthogonalLoop=1;jettySize=auto;html=1;entryX=0.5;entryY=1;entryDx=0;entryDy=0;" parent="1" source="bWBlooidnNN79LYnT6fm-73" target="bWBlooidnNN79LYnT6fm-77" edge="1">
          <mxGeometry relative="1" as="geometry">
            <mxPoint x="370" y="580" as="targetPoint" />
          </mxGeometry>
        </mxCell>
        <mxCell id="68LMOMekA5ZK0Uav1YOE-62" value="1*1" style="edgeLabel;html=1;align=center;verticalAlign=middle;resizable=0;points=[];" parent="68LMOMekA5ZK0Uav1YOE-60" vertex="1" connectable="0">
          <mxGeometry x="-0.2308" y="-2" relative="1" as="geometry">
            <mxPoint x="-2" y="-5" as="offset" />
          </mxGeometry>
        </mxCell>
        <mxCell id="bWBlooidnNN79LYnT6fm-73" value="Hotel" style="rounded=0;whiteSpace=wrap;html=1;fillColor=#e1d5e7;strokeColor=#9673a6;" parent="1" vertex="1">
          <mxGeometry x="310" y="640" width="120" height="60" as="geometry" />
        </mxCell>
        <mxCell id="bWBlooidnNN79LYnT6fm-102" style="edgeStyle=orthogonalEdgeStyle;rounded=0;orthogonalLoop=1;jettySize=auto;html=1;exitX=0.5;exitY=1;exitDx=0;exitDy=0;endSize=11;" parent="1" source="bWBlooidnNN79LYnT6fm-74" target="bWBlooidnNN79LYnT6fm-76" edge="1">
          <mxGeometry relative="1" as="geometry">
            <mxPoint x="700" y="640" as="sourcePoint" />
            <mxPoint x="690" y="1110" as="targetPoint" />
            <Array as="points">
              <mxPoint x="780" y="840" />
            </Array>
          </mxGeometry>
        </mxCell>
        <mxCell id="bWBlooidnNN79LYnT6fm-104" value="1:*" style="edgeLabel;html=1;align=center;verticalAlign=middle;resizable=0;points=[];" parent="bWBlooidnNN79LYnT6fm-102" vertex="1" connectable="0">
          <mxGeometry x="-0.8125" relative="1" as="geometry">
            <mxPoint y="10" as="offset" />
          </mxGeometry>
        </mxCell>
        <mxCell id="bWBlooidnNN79LYnT6fm-105" value="1:1" style="edgeLabel;html=1;align=center;verticalAlign=middle;resizable=0;points=[];" parent="bWBlooidnNN79LYnT6fm-102" vertex="1" connectable="0">
          <mxGeometry x="0.5625" y="3" relative="1" as="geometry">
            <mxPoint x="7" y="23" as="offset" />
          </mxGeometry>
        </mxCell>
        <mxCell id="68LMOMekA5ZK0Uav1YOE-50" style="edgeStyle=orthogonalEdgeStyle;rounded=0;orthogonalLoop=1;jettySize=auto;html=1;entryX=1;entryY=0.5;entryDx=0;entryDy=0;" parent="1" source="bWBlooidnNN79LYnT6fm-74" target="bWBlooidnNN79LYnT6fm-78" edge="1">
          <mxGeometry relative="1" as="geometry">
            <Array as="points">
              <mxPoint x="700" y="805" />
              <mxPoint x="700" y="768" />
            </Array>
          </mxGeometry>
        </mxCell>
        <mxCell id="68LMOMekA5ZK0Uav1YOE-57" value="1:*" style="edgeLabel;html=1;align=center;verticalAlign=middle;resizable=0;points=[];" parent="68LMOMekA5ZK0Uav1YOE-50" vertex="1" connectable="0">
          <mxGeometry x="0.5525" y="2" relative="1" as="geometry">
            <mxPoint as="offset" />
          </mxGeometry>
        </mxCell>
        <mxCell id="bWBlooidnNN79LYnT6fm-74" value="guest" style="rounded=0;whiteSpace=wrap;html=1;fillColor=#1ba1e2;strokeColor=#006EAF;fontColor=#ffffff;" parent="1" vertex="1">
          <mxGeometry x="720" y="775" width="120" height="60" as="geometry" />
        </mxCell>
        <mxCell id="bWBlooidnNN79LYnT6fm-75" value="Cabin" style="rounded=0;whiteSpace=wrap;html=1;fillColor=#d5e8d4;strokeColor=#82b366;" parent="1" vertex="1">
          <mxGeometry x="310" y="900" width="120" height="60" as="geometry" />
        </mxCell>
        <mxCell id="bWBlooidnNN79LYnT6fm-106" style="edgeStyle=orthogonalEdgeStyle;rounded=0;orthogonalLoop=1;jettySize=auto;html=1;entryX=1;entryY=0.5;entryDx=0;entryDy=0;" parent="1" source="bWBlooidnNN79LYnT6fm-76" target="bWBlooidnNN79LYnT6fm-75" edge="1">
          <mxGeometry relative="1" as="geometry" />
        </mxCell>
        <mxCell id="bWBlooidnNN79LYnT6fm-108" value="1:*" style="edgeLabel;html=1;align=center;verticalAlign=middle;resizable=0;points=[];" parent="bWBlooidnNN79LYnT6fm-106" vertex="1" connectable="0">
          <mxGeometry x="-0.7895" relative="1" as="geometry">
            <mxPoint as="offset" />
          </mxGeometry>
        </mxCell>
        <mxCell id="bWBlooidnNN79LYnT6fm-76" value="Booking" style="rounded=0;whiteSpace=wrap;html=1;fillColor=#dae8fc;strokeColor=#6c8ebf;" parent="1" vertex="1">
          <mxGeometry x="720" y="980" width="120" height="60" as="geometry" />
        </mxCell>
        <mxCell id="bWBlooidnNN79LYnT6fm-77" value="Setting" style="rounded=0;whiteSpace=wrap;html=1;fillColor=#ffe6cc;strokeColor=#d79b00;" parent="1" vertex="1">
          <mxGeometry x="335" y="540" width="70" height="35" as="geometry" />
        </mxCell>
        <mxCell id="bWBlooidnNN79LYnT6fm-78" value="Review" style="rounded=0;whiteSpace=wrap;html=1;fillColor=#60a917;strokeColor=#2D7600;fontColor=#ffffff;" parent="1" vertex="1">
          <mxGeometry x="550" y="750" width="70" height="35" as="geometry" />
        </mxCell>
        <mxCell id="bWBlooidnNN79LYnT6fm-100" value="Do booking" style="text;html=1;strokeColor=none;fillColor=none;align=center;verticalAlign=middle;whiteSpace=wrap;rounded=0;rotation=-90;" parent="1" vertex="1">
          <mxGeometry x="755" y="905" width="70" height="10" as="geometry" />
        </mxCell>
        <mxCell id="bWBlooidnNN79LYnT6fm-107" value="reserve&amp;nbsp;" style="text;html=1;strokeColor=none;fillColor=none;align=center;verticalAlign=middle;whiteSpace=wrap;rounded=0;rotation=0;" parent="1" vertex="1">
          <mxGeometry x="510" y="910" width="70" height="20" as="geometry" />
        </mxCell>
        <mxCell id="bWBlooidnNN79LYnT6fm-117" value="has" style="text;html=1;strokeColor=none;fillColor=none;align=center;verticalAlign=middle;whiteSpace=wrap;rounded=0;rotation=-90;" parent="1" vertex="1">
          <mxGeometry x="316.25" y="808.75" width="70" height="22.5" as="geometry" />
        </mxCell>
        <mxCell id="bWBlooidnNN79LYnT6fm-142" value="Role" style="rounded=0;whiteSpace=wrap;html=1;fillColor=#f8cecc;strokeColor=#b85450;gradientColor=#ea6b66;" parent="1" vertex="1">
          <mxGeometry x="540" y="640" width="70" height="60" as="geometry" />
        </mxCell>
        <mxCell id="68LMOMekA5ZK0Uav1YOE-30" style="edgeStyle=orthogonalEdgeStyle;rounded=0;orthogonalLoop=1;jettySize=auto;html=1;entryX=1;entryY=0.4;entryDx=0;entryDy=0;entryPerimeter=0;" parent="1" source="68LMOMekA5ZK0Uav1YOE-1" target="bWBlooidnNN79LYnT6fm-142" edge="1">
          <mxGeometry relative="1" as="geometry">
            <mxPoint x="615" y="680" as="targetPoint" />
            <Array as="points">
              <mxPoint x="610" y="670" />
            </Array>
          </mxGeometry>
        </mxCell>
        <mxCell id="68LMOMekA5ZK0Uav1YOE-35" value="1:*" style="edgeLabel;html=1;align=center;verticalAlign=middle;resizable=0;points=[];" parent="68LMOMekA5ZK0Uav1YOE-30" vertex="1" connectable="0">
          <mxGeometry x="-0.2028" y="1" relative="1" as="geometry">
            <mxPoint as="offset" />
          </mxGeometry>
        </mxCell>
        <mxCell id="68LMOMekA5ZK0Uav1YOE-1" value="a hotel account" style="rounded=0;whiteSpace=wrap;html=1;fillColor=#dae8fc;strokeColor=#6c8ebf;gradientColor=#7ea6e0;" parent="1" vertex="1">
          <mxGeometry x="760" y="640" width="120" height="60" as="geometry" />
        </mxCell>
        <mxCell id="68LMOMekA5ZK0Uav1YOE-2" value="hotel account" style="swimlane;fontStyle=0;childLayout=stackLayout;horizontal=1;startSize=30;horizontalStack=0;resizeParent=1;resizeParentMax=0;resizeLast=0;collapsible=1;marginBottom=0;whiteSpace=wrap;html=1;fillColor=#dae8fc;strokeColor=#6c8ebf;gradientColor=#7ea6e0;" parent="1" vertex="1">
          <mxGeometry x="86.25" y="45" width="80" height="140" as="geometry" />
        </mxCell>
        <mxCell id="68LMOMekA5ZK0Uav1YOE-3" value="userName" style="text;strokeColor=none;fillColor=none;align=left;verticalAlign=middle;spacingLeft=4;spacingRight=4;overflow=hidden;points=[[0,0.5],[1,0.5]];portConstraint=eastwest;rotatable=0;whiteSpace=wrap;html=1;" parent="68LMOMekA5ZK0Uav1YOE-2" vertex="1">
          <mxGeometry y="30" width="80" height="30" as="geometry" />
        </mxCell>
        <mxCell id="68LMOMekA5ZK0Uav1YOE-5" value="email" style="text;strokeColor=none;fillColor=none;align=left;verticalAlign=middle;spacingLeft=4;spacingRight=4;overflow=hidden;points=[[0,0.5],[1,0.5]];portConstraint=eastwest;rotatable=0;whiteSpace=wrap;html=1;" parent="68LMOMekA5ZK0Uav1YOE-2" vertex="1">
          <mxGeometry y="60" width="80" height="30" as="geometry" />
        </mxCell>
        <mxCell id="68LMOMekA5ZK0Uav1YOE-6" value="createdAt" style="text;strokeColor=none;fillColor=none;align=left;verticalAlign=middle;spacingLeft=4;spacingRight=4;overflow=hidden;points=[[0,0.5],[1,0.5]];portConstraint=eastwest;rotatable=0;whiteSpace=wrap;html=1;" parent="68LMOMekA5ZK0Uav1YOE-2" vertex="1">
          <mxGeometry y="90" width="80" height="30" as="geometry" />
        </mxCell>
        <mxCell id="68LMOMekA5ZK0Uav1YOE-17" value="password" style="text;strokeColor=none;fillColor=none;align=left;verticalAlign=middle;spacingLeft=4;spacingRight=4;overflow=hidden;points=[[0,0.5],[1,0.5]];portConstraint=eastwest;rotatable=0;whiteSpace=wrap;html=1;" parent="68LMOMekA5ZK0Uav1YOE-2" vertex="1">
          <mxGeometry y="120" width="80" height="20" as="geometry" />
        </mxCell>
        <mxCell id="68LMOMekA5ZK0Uav1YOE-36" value="has" style="text;html=1;strokeColor=none;fillColor=none;align=center;verticalAlign=middle;whiteSpace=wrap;rounded=0;" parent="1" vertex="1">
          <mxGeometry x="660" y="630" width="60" height="30" as="geometry" />
        </mxCell>
        <mxCell id="68LMOMekA5ZK0Uav1YOE-37" value="to" style="text;html=1;strokeColor=none;fillColor=none;align=center;verticalAlign=middle;whiteSpace=wrap;rounded=0;" parent="1" vertex="1">
          <mxGeometry x="460" y="630" width="60" height="30" as="geometry" />
        </mxCell>
        <mxCell id="68LMOMekA5ZK0Uav1YOE-53" value="has" style="text;html=1;strokeColor=none;fillColor=none;align=center;verticalAlign=middle;whiteSpace=wrap;rounded=0;rotation=0;" parent="1" vertex="1">
          <mxGeometry x="460" y="760" width="70" height="10" as="geometry" />
        </mxCell>
        <mxCell id="68LMOMekA5ZK0Uav1YOE-55" value="has" style="text;html=1;strokeColor=none;fillColor=none;align=center;verticalAlign=middle;whiteSpace=wrap;rounded=0;rotation=0;" parent="1" vertex="1">
          <mxGeometry x="540" y="870" width="70" height="10" as="geometry" />
        </mxCell>
        <mxCell id="68LMOMekA5ZK0Uav1YOE-56" value="review hotel" style="text;html=1;strokeColor=none;fillColor=none;align=center;verticalAlign=middle;whiteSpace=wrap;rounded=0;rotation=0;" parent="1" vertex="1">
          <mxGeometry x="650" y="750" width="70" height="10" as="geometry" />
        </mxCell>
        <mxCell id="68LMOMekA5ZK0Uav1YOE-63" value="has" style="text;html=1;strokeColor=none;fillColor=none;align=center;verticalAlign=middle;whiteSpace=wrap;rounded=0;rotation=-90;" parent="1" vertex="1">
          <mxGeometry x="316.25" y="590" width="70" height="22.5" as="geometry" />
        </mxCell>
        <mxCell id="68LMOMekA5ZK0Uav1YOE-20" value="Roles" style="swimlane;fontStyle=0;childLayout=stackLayout;horizontal=1;startSize=30;horizontalStack=0;resizeParent=1;resizeParentMax=0;resizeLast=0;collapsible=1;marginBottom=0;whiteSpace=wrap;html=1;fillColor=#f8cecc;strokeColor=#b85450;gradientColor=#ea6b66;" parent="1" vertex="1">
          <mxGeometry x="195" y="45" width="100" height="120" as="geometry" />
        </mxCell>
        <mxCell id="68LMOMekA5ZK0Uav1YOE-21" value="**hotelAccountId" style="text;strokeColor=none;fillColor=none;align=left;verticalAlign=middle;spacingLeft=4;spacingRight=4;overflow=hidden;points=[[0,0.5],[1,0.5]];portConstraint=eastwest;rotatable=0;whiteSpace=wrap;html=1;" parent="68LMOMekA5ZK0Uav1YOE-20" vertex="1">
          <mxGeometry y="30" width="100" height="30" as="geometry" />
        </mxCell>
        <mxCell id="68LMOMekA5ZK0Uav1YOE-22" value="**hotelId" style="text;strokeColor=none;fillColor=none;align=left;verticalAlign=middle;spacingLeft=4;spacingRight=4;overflow=hidden;points=[[0,0.5],[1,0.5]];portConstraint=eastwest;rotatable=0;whiteSpace=wrap;html=1;" parent="68LMOMekA5ZK0Uav1YOE-20" vertex="1">
          <mxGeometry y="60" width="100" height="30" as="geometry" />
        </mxCell>
        <mxCell id="68LMOMekA5ZK0Uav1YOE-23" value="role" style="text;strokeColor=none;fillColor=none;align=left;verticalAlign=middle;spacingLeft=4;spacingRight=4;overflow=hidden;points=[[0,0.5],[1,0.5]];portConstraint=eastwest;rotatable=0;whiteSpace=wrap;html=1;" parent="68LMOMekA5ZK0Uav1YOE-20" vertex="1">
          <mxGeometry y="90" width="100" height="30" as="geometry" />
        </mxCell>
      </root>
    </mxGraphModel>
  </diagram>
</mxfile>
